<svg xmlns="http://www.w3.org/2000/svg"
     id="Layer_1"
     height="512"
     width="512"
     viewBox="0 0 48 48"
     fill="currentColor"
     data-name="Layer 1"
>
    <path d="m34.47 45h-26.94a5 5 0 0 1 -4.963-5.625l3-24a5.007 5.007 0 0 1 4.963-4.375h20.94a5.007 5.007 0 0 1 4.963 4.376l1.329 10.67a1 1 0 1 1 -1.985.247l-1.329-10.669a3 3 0 0 0 -2.978-2.624h-20.94a3 3 0 0 0 -2.978 2.624l-3 24a3.005 3.005 0 0 0 2.978 3.376h26.94a.99.99 0 0 1 1.157.793 1.017 1.017 0 0 1 -.8 1.179 1.989 1.989 0 0 1 -.357.028z"/>
    <path d="m28 20a1 1 0 0 1 -1-1v-8a6 6 0 0 0 -12 0v8a1 1 0 0 1 -2 0v-8a8 8 0 0 1 16 0v8a1 1 0 0 1 -1 1z"/>
    <path d="m35 45a10 10 0 1 1 10-10 10.011 10.011 0 0 1 -10 10zm0-18a8 8 0 1 0 8 8 8.009 8.009 0 0 0 -8-8z"/>
    <path d="m35 39a1 1 0 0 1 -1-1v-6a1 1 0 0 1 2 0v6a1 1 0 0 1 -1 1z"/>
    <path d="m38 36h-6a1 1 0 0 1 0-2h6a1 1 0 0 1 0 2z"/>
</svg>