<svg xmlns="http://www.w3.org/2000/svg"
     xmlns:svg="http://www.w3.org/2000/svg"
     id="svg8"
     height="512"
     viewBox="0 0 48 48"
     width="512"
     stroke="currentColor"
     fill="none"
     stroke-width="2"
>
    <g id="g4604" transform="translate(0 -.049)">
        <path id="path4560"
              d="m5.18164 11.048828c-1.74533 0-3.18164 1.436308-3.18164 3.181641v3.978515c.00032.433896.28038.818092.69336.951172 1.24751.402633 2.30621 1.969916 2.30664 3.888672.00017 1.919372-1.05873 3.487862-2.30664 3.890625-.41298.13308-.69304.517276-.69336.951172v5.976563c0 1.745331 1.43631 3.18164 3.18164 3.18164h29.81836c.55228 0 1-.447715 1-1s-.44772-1-1-1h-22.00195c.00497-.345135.00195-.700212.00195-1.048828 0-.552285-.44772-1-1-1s-1 .447715-1 1c-.002.347065.001.705865.002 1.04883h-5.82036c-.67212-.000004-1.18164-.509521-1.18164-1.181642v-5.404297c1.84688-.973018 3.00021-3.069972 3-5.414063-.00052-2.343347-1.15364-4.439475-3-5.412109v-3.40625c0-.672124.50952-1.181641 1.18164-1.181641h5.81836v.951172c0 .552285.44772 1 1 1s1-.447715 1-1v-.951172h29.81836c.67212 0 1.18164.509517 1.18164 1.181641v3.404297c-1.84688.973018-3.00021 3.069972-3 5.414062.00052 2.343347 1.15364 4.439476 3 5.41211v5.40625c0 .672122-.50952 1.18164-1.18164 1.18164h-3.81836c-.55228 0-1 .447715-1 1s.44772 1 1 1h3.81836c1.74533 0 3.18164-1.436308 3.18164-3.18164v-5.978516c-.00032-.433896-.28038-.818092-.69336-.951172-1.24751-.402632-2.30621-1.969916-2.30664-3.888672-.00017-1.919372 1.05872-3.487862 2.30664-3.890625.41298-.13308.69304-.517276.69336-.951172v-3.976562c0-1.745333-1.43631-3.181641-3.18164-3.181641z"
              vector-effect="none"/>
        <path id="path4564"
              d="m12 16.482422a1 1 0 0 0 -1 1v2.171875a1 1 0 0 0 1 1 1 1 0 0 0 1-1v-2.171875a1 1 0 0 0 -1-1z"
              vector-effect="none"/>
        <path id="path4566"
              d="m12 21.914062a1 1 0 0 0 -1 1v2.171876a1 1 0 0 0 1 1 1 1 0 0 0 1-1v-2.171876a1 1 0 0 0 -1-1z"
              vector-effect="none"/>
        <path id="path4568"
              d="m12 27.345703a1 1 0 0 0 -1 1v2.171875a1 1 0 0 0 1 1 1 1 0 0 0 1-1v-2.171875a1 1 0 0 0 -1-1z"
              vector-effect="none"/>
        <path id="circle4576"
              d="m32.76218 25.565139c1.78013 0 3.24414 1.464012 3.24414 3.24414s-1.46401 3.246094-3.24414 3.246094-3.24609-1.465966-3.24609-3.246094 1.46596-3.24414 3.24609-3.24414zm0 2c-.69925 0-1.24609.544892-1.24609 1.24414s.54684 1.246094 1.24609 1.246094 1.24414-.546846 1.24414-1.246094-.54489-1.24414-1.24414-1.24414z"
              vector-effect="none"/>
        <path id="circle4578"
              d="m23.23937 16.042818c1.78013 0 3.24414 1.464013 3.24414 3.24414 0 1.780129-1.46401 3.244141-3.24414 3.244141s-3.24609-1.464012-3.24609-3.244141c0-1.780127 1.46597-3.24414 3.24609-3.24414zm0 2c-.69924 0-1.24609.544893-1.24609 1.24414 0 .699248.54685 1.244141 1.24609 1.244141.69925 0 1.24414-.544893 1.24414-1.244141 0-.699247-.54489-1.24414-1.24414-1.24414z"
              vector-effect="none"/>
        <path id="path1804"
              d="m32.054688 18.580078-9.523438 9.523438c-.390423.390507-.390423 1.023555 0 1.414062.390507.390423 1.023555.390423 1.414062 0l9.523438-9.523437c.390424-.390507.390424-1.023556 0-1.414063-.487476-.444534-1.006664-.407398-1.414062 0z"
              vector-effect="none"/>
    </g>
</svg>