<svg xmlns="http://www.w3.org/2000/svg"
     enable-background="new 0 0 64 64"
     viewBox="0 0 64 64"
     height="512"
     width="512"
     fill="currentColor"
>
    <g id="Layer_7" display="none">
        <path d="m-257-89h410v410h-410z" display="inline" fill="#fff"/>
    </g>
    <g id="Layer_9" display="none">
        <path d="m-8-8h80v80h-80z" display="inline" fill="#fff"/>
    </g>
    <g id="filled" display="none">
        <g stroke="#000" stroke-linecap="square" stroke-miterlimit="10" stroke-width="2">
            <g display="inline" fill="none">
                <path d="m11 11h2"/>
                <path d="m5 11h2"/>
                <path d="m9 13v2"/>
                <path d="m9 7v2"/>
            </g>
            <g display="inline" fill="none">
                <path d="m56 23h2"/>
                <path d="m50 23h2"/>
                <path d="m54 25v2"/>
                <path d="m54 19v2"/>
            </g>
            <g display="inline" fill="none">
                <path d="m39 9h2"/>
                <path d="m33 9h2"/>
                <path d="m37 11v2"/>
                <path d="m37 5v2"/>
            </g>
            <circle cx="7" cy="47" display="inline" fill="none" r="2"/>
            <circle cx="54" cy="10" display="inline" fill="none" r="2"/>
            <g display="inline">
                <path d="m16.5 38h31v21h-31z" fill="#ff375b"/>
                <path d="m14 31h36v7h-36z" fill="#ff6678"/>
                <path d="m29 31h6v28h-6z" fill="#fff"/>
                <g fill="none" stroke-linejoin="bevel">
                    <path d="m41.49 28.8c1.87-1.57 2.11-4.35.54-6.22s-4.35-2.11-6.22-.54c-.62.52-1.05 1.17-1.31 1.87l-2.5 7.09 7.42-1.24c.74-.13 1.46-.44 2.07-.96z"/>
                    <path d="m22.51 28.8c-1.87-1.57-2.11-4.35-.54-6.22s4.35-2.11 6.22-.54c.62.52 1.05 1.17 1.31 1.87l2.5 7.09-7.42-1.24c-.74-.13-1.46-.44-2.07-.96z"/>
                </g>
            </g>
        </g>
        <path d="m7 23h2v2h-2z" display="inline"/>
        <path d="m23 13h2v2h-2z" display="inline"/>
        <path d="m57 42h2v2h-2z" display="inline"/>
    </g>
    <g id="filled_expand" display="none">
        <g display="inline">
            <path d="m16.5 38h31v21h-31z" fill="#ff5078"/>
            <path d="m32 38h15.5v21h-15.5z" fill="#ff1739"/>
            <path d="m14 31h36v7h-36z" fill="#ff7fa8"/>
            <path d="m32 31h18v7h-18z" fill="#ff5078"/>
            <path d="m29 31h6v28h-6z" fill="#9bebe6"/>
            <path d="m32 31h3v28h-3z" fill="#5fe4dc"/>
        </g>
        <g display="inline">
            <path d="m10 10h4v2h-4z"/>
            <path d="m4 10h4v2h-4z"/>
            <path d="m8 12h2v4h-2z"/>
            <path d="m8 6h2v4h-2z"/>
            <path d="m55 22h4v2h-4z"/>
            <path d="m49 22h4v2h-4z"/>
            <path d="m53 24h2v4h-2z"/>
            <path d="m53 18h2v4h-2z"/>
            <path d="m38 8h4v2h-4z"/>
            <path d="m32 8h4v2h-4z"/>
            <path d="m36 10h2v4h-2z"/>
            <path d="m36 4h2v4h-2z"/>
            <path d="m7 44c-1.65 0-3 1.35-3 3s1.35 3 3 3 3-1.35 3-3-1.35-3-3-3zm0 4c-.55 0-1-.45-1-1s.45-1 1-1 1 .45 1 1-.45 1-1 1z"/>
            <path d="m54 13c1.65 0 3-1.35 3-3s-1.35-3-3-3-3 1.35-3 3 1.35 3 3 3zm0-4c.55 0 1 .45 1 1s-.45 1-1 1-1-.45-1-1 .45-1 1-1z"/>
            <path d="m42.14 29.56c1.11-.93 1.79-2.24 1.91-3.68.13-1.44-.32-2.85-1.25-3.95-.93-1.11-2.24-1.79-3.68-1.91s-2.85.32-3.95 1.25c-.73.61-1.28 1.4-1.61 2.31l-1.56 4.42-1.57-4.44c-.33-.9-.88-1.69-1.61-2.3-1.11-.93-2.51-1.37-3.95-1.25-1.44.13-2.75.81-3.68 1.91-.93 1.11-1.37 2.51-1.25 3.95.13 1.44.81 2.75 1.91 3.68.19.16.39.3.6.44h-9.45v9h2.5v21h33v-20.99h2.5v-9h-9.47c.21-.13.42-.28.61-.44zm-6.69-5.31c.2-.56.55-1.07 1.01-1.45.62-.52 1.39-.8 2.19-.8.1 0 .2 0 .3.01.91.08 1.73.51 2.32 1.21s.87 1.58.79 2.49-.51 1.73-1.21 2.32c-.46.38-1.01.64-1.59.74l-5.75.96zm-13.51 1.46c-.08-.91.2-1.79.79-2.49s1.41-1.13 2.32-1.21 1.79.2 2.49.79c.46.38.81.88 1.01 1.44l1.94 5.49-5.74-.96c-.59-.1-1.15-.36-1.6-.74-.7-.58-1.13-1.41-1.21-2.32zm6.06 32.29h-10.5v-19h10.5zm0-21h-13v-5h13zm6 21h-4v-26h4zm12.5 0h-10.5v-19h10.5zm2.5-26v5h-13v-5z"/>
            <path d="m7 23h2v2h-2z"/>
            <path d="m57 42h2v2h-2z"/>
        </g>
        <path d="m23 13h2v2h-2z" display="inline"/>
    </g>
    <g id="flat" display="none">
        <g display="inline">
            <path d="m16.5 38h31v21h-31z" fill="#ff416e"/>
            <path d="m32 38h15.5v21h-15.5z" fill="#f00023"/>
            <path d="m14 31h36v7h-36z" fill="#ff6e91"/>
            <path d="m32 31h18v7h-18z" fill="#ff416e"/>
            <path d="m29 31h6v28h-6z" fill="#9bebe6"/>
            <path d="m32 31h3v28h-3z" fill="#5fe4dc"/>
            <g fill="#82dc38">
                <path d="m10 10h4v2h-4z"/>
                <path d="m4 10h4v2h-4z"/>
                <path d="m8 12h2v4h-2z"/>
                <path d="m8 6h2v4h-2z"/>
            </g>
            <g fill="#ffd723">
                <path d="m55 22h4v2h-4z"/>
                <path d="m49 22h4v2h-4z"/>
                <path d="m53 24h2v4h-2z"/>
                <path d="m53 18h2v4h-2z"/>
            </g>
            <g fill="#9bebe6">
                <path d="m38 8h4v2h-4z"/>
                <path d="m32 8h4v2h-4z"/>
                <path d="m36 10h2v4h-2z"/>
                <path d="m36 4h2v4h-2z"/>
            </g>
            <path d="m7 50c-1.65 0-3-1.35-3-3s1.35-3 3-3 3 1.35 3 3-1.35 3-3 3zm0-4c-.55 0-1 .45-1 1s.45 1 1 1 1-.45 1-1-.45-1-1-1z"
                  fill="#ffed69"/>
            <path d="m54 13c-1.65 0-3-1.35-3-3s1.35-3 3-3 3 1.35 3 3-1.35 3-3 3zm0-4c-.55 0-1 .45-1 1s.45 1 1 1 1-.45 1-1-.45-1-1-1z"
                  fill="#68c825"/>
            <path d="m42.8 21.94c-.93-1.11-2.24-1.79-3.68-1.91s-2.85.32-3.95 1.25c-.73.61-1.28 1.4-1.61 2.31l-1.56 4.41-1.57-4.43c-.33-.9-.88-1.69-1.61-2.3-1.11-.93-2.51-1.37-3.95-1.25-1.44.13-2.75.81-3.68 1.91-.93 1.11-1.37 2.51-1.25 3.95.13 1.44.81 2.75 1.91 3.68.73.61 1.6 1.02 2.55 1.18l7.6 1.27 7.59-1.27c.94-.16 1.82-.57 2.54-1.18 1.11-.93 1.79-2.24 1.91-3.68.14-1.43-.31-2.84-1.24-3.94zm-18.05 6.84c-.59-.1-1.15-.36-1.6-.74-.7-.59-1.13-1.41-1.21-2.32s.2-1.79.79-2.49 1.41-1.13 2.32-1.21 1.79.2 2.49.79c.46.38.81.88 1.01 1.44l1.94 5.49zm16.1-.75c-.46.38-1.01.64-1.59.74l-5.75.96 1.94-5.49c.2-.56.55-1.07 1.01-1.45.62-.52 1.39-.8 2.19-.8.1 0 .2 0 .3.01.91.08 1.73.51 2.32 1.21s.87 1.58.79 2.49c-.08.92-.51 1.75-1.21 2.33z"
                  fill="#c6f4f3"/>
            <path d="m39.13 20.02c-1.44-.12-2.85.32-3.95 1.25-.73.61-1.28 1.4-1.61 2.31l-1.57 4.42v4.01l7.59-1.27c.94-.16 1.82-.57 2.54-1.18 1.11-.93 1.79-2.24 1.91-3.68.13-1.44-.32-2.85-1.25-3.95-.92-1.1-2.22-1.78-3.66-1.91zm1.72 8.01c-.46.38-1.01.64-1.59.74l-5.75.96 1.94-5.49c.2-.56.55-1.07 1.01-1.45.62-.52 1.39-.8 2.19-.8.1 0 .2 0 .3.01.91.08 1.73.51 2.32 1.21s.87 1.58.79 2.49c-.08.92-.51 1.75-1.21 2.33z"
                  fill="#9bebe6"/>
            <path d="m7 23h2v2h-2z" fill="#ff6e91"/>
            <path d="m57 42h2v2h-2z" fill="#ff416e"/>
        </g>
        <path d="m23 13h2v2h-2z" display="inline" fill="#ffed69"/>
    </g>
    <g id="Line" display="none">
        <g display="inline">
            <g fill="none" stroke="#000" stroke-linecap="square" stroke-miterlimit="10" stroke-width="2">
                <g>
                    <path d="m11 11h2"/>
                    <path d="m5 11h2"/>
                    <path d="m9 13v2"/>
                    <path d="m9 7v2"/>
                </g>
                <g>
                    <path d="m56 23h2"/>
                    <path d="m50 23h2"/>
                    <path d="m54 25v2"/>
                    <path d="m54 19v2"/>
                </g>
                <g>
                    <path d="m39 9h2"/>
                    <path d="m33 9h2"/>
                    <path d="m37 11v2"/>
                    <path d="m37 5v2"/>
                </g>
                <circle cx="7" cy="47" r="2"/>
                <circle cx="54" cy="10" r="2"/>
                <g>
                    <path d="m16.5 38h12.5v21h-12.5z"/>
                    <path d="m35 38h12.5v21h-12.5z"/>
                </g>
                <g>
                    <path d="m14 31h15v7h-15z"/>
                    <path d="m35 31h15v7h-15z"/>
                </g>
                <path d="m29 31h6v28h-6z"/>
                <path d="m41.49 28.8c1.87-1.57 2.11-4.35.54-6.22s-4.35-2.11-6.22-.54c-.62.52-1.05 1.17-1.31 1.87l-2.5 7.09 7.42-1.24c.74-.13 1.46-.44 2.07-.96z"
                      stroke-linejoin="bevel"/>
                <path d="m22.51 28.8c-1.87-1.57-2.11-4.35-.54-6.22s4.35-2.11 6.22-.54c.62.52 1.05 1.17 1.31 1.87l2.5 7.09-7.42-1.24c-.74-.13-1.46-.44-2.07-.96z"
                      stroke-linejoin="bevel"/>
            </g>
            <path d="m7 23h2v2h-2z"/>
            <path d="m57 42h2v2h-2z"/>
        </g>
        <path d="m23 13h2v2h-2z" display="inline"/>
    </g>
    <g id="line_Expand">
        <g>
            <path d="m10 10h4v2h-4z"/>
            <path d="m4 10h4v2h-4z"/>
            <path d="m8 12h2v4h-2z"/>
            <path d="m8 6h2v4h-2z"/>
            <path d="m55 22h4v2h-4z"/>
            <path d="m49 22h4v2h-4z"/>
            <path d="m53 24h2v4h-2z"/>
            <path d="m53 18h2v4h-2z"/>
            <path d="m38 8h4v2h-4z"/>
            <path d="m32 8h4v2h-4z"/>
            <path d="m36 10h2v4h-2z"/>
            <path d="m36 4h2v4h-2z"/>
            <path d="m7 44c-1.65 0-3 1.35-3 3s1.35 3 3 3 3-1.35 3-3-1.35-3-3-3zm0 4c-.55 0-1-.45-1-1s.45-1 1-1 1 .45 1 1-.45 1-1 1z"/>
            <path d="m54 13c1.65 0 3-1.35 3-3s-1.35-3-3-3-3 1.35-3 3 1.35 3 3 3zm0-4c.55 0 1 .45 1 1s-.45 1-1 1-1-.45-1-1 .45-1 1-1z"/>
            <path d="m42.14 29.56c1.11-.93 1.79-2.24 1.91-3.68.13-1.44-.32-2.85-1.25-3.95-.93-1.11-2.24-1.79-3.68-1.91s-2.85.32-3.95 1.25c-.73.61-1.28 1.4-1.61 2.31l-1.56 4.42-1.57-4.44c-.33-.9-.88-1.69-1.61-2.3-1.11-.93-2.51-1.37-3.95-1.25-1.44.13-2.75.81-3.68 1.91-.93 1.11-1.37 2.51-1.25 3.95.13 1.44.81 2.75 1.91 3.68.19.16.39.3.6.44h-9.45v9h2.5v21h33v-20.99h2.5v-9h-9.47c.21-.13.42-.28.61-.44zm-6.69-5.31c.2-.56.55-1.07 1.01-1.45.62-.52 1.39-.8 2.19-.8.1 0 .2 0 .3.01.91.08 1.73.51 2.32 1.21s.87 1.58.79 2.49-.51 1.73-1.21 2.32c-.46.38-1.01.64-1.59.74l-5.75.96zm-13.51 1.46c-.08-.91.2-1.79.79-2.49s1.41-1.13 2.32-1.21 1.79.2 2.49.79c.46.38.81.88 1.01 1.44l1.94 5.49-5.74-.96c-.59-.1-1.15-.36-1.6-.74-.7-.58-1.13-1.41-1.21-2.32zm6.06 32.29h-10.5v-19h10.5zm0-21h-13v-5h13zm6 21h-4v-26h4zm12.5 0h-10.5v-19h10.5zm2.5-26v5h-13v-5z"/>
            <path d="m7 23h2v2h-2z"/>
            <path d="m57 42h2v2h-2z"/>
        </g>
        <path d="m23 13h2v2h-2z"/>
    </g>
    <g id="Solid" display="none">
        <g display="inline">
            <path d="m10 10h4v2h-4z"/>
            <path d="m4 10h4v2h-4z"/>
            <path d="m8 12h2v4h-2z"/>
            <path d="m8 6h2v4h-2z"/>
            <path d="m55 22h4v2h-4z"/>
            <path d="m49 22h4v2h-4z"/>
            <path d="m53 24h2v4h-2z"/>
            <path d="m53 18h2v4h-2z"/>
            <path d="m38 8h4v2h-4z"/>
            <path d="m32 8h4v2h-4z"/>
            <path d="m36 10h2v4h-2z"/>
            <path d="m36 4h2v4h-2z"/>
            <path d="m7 50c-1.65 0-3-1.35-3-3s1.35-3 3-3 3 1.35 3 3-1.35 3-3 3zm0-4c-.55 0-1 .45-1 1s.45 1 1 1 1-.45 1-1-.45-1-1-1z"/>
            <path d="m54 13c-1.65 0-3-1.35-3-3s1.35-3 3-3 3 1.35 3 3-1.35 3-3 3zm0-4c-.55 0-1 .45-1 1s.45 1 1 1 1-.45 1-1-.45-1-1-1z"/>
            <path d="m16.5 40h11.5v19h-11.5z"/>
            <path d="m36 40h11.5v19h-11.5z"/>
            <path d="m7 23h2v2h-2z"/>
            <path d="m57 42h2v2h-2z"/>
            <path d="m42.8 21.94c-.93-1.11-2.24-1.79-3.68-1.91s-2.85.32-3.95 1.25c-.73.61-1.28 1.4-1.61 2.31l-1.56 4.41-1.57-4.43c-.33-.9-.88-1.69-1.61-2.3-1.11-.93-2.51-1.37-3.95-1.25-1.44.13-2.75.81-3.68 1.91-.93 1.11-1.37 2.51-1.25 3.95.13 1.44.81 2.75 1.91 3.68.73.61 1.6 1.02 2.55 1.18l7.6 1.27 7.59-1.27c.94-.16 1.82-.57 2.54-1.18 1.11-.93 1.79-2.24 1.91-3.68.14-1.43-.31-2.84-1.24-3.94zm-18.05 6.84c-.59-.1-1.15-.36-1.6-.74-.7-.59-1.13-1.41-1.21-2.32s.2-1.79.79-2.49 1.41-1.13 2.32-1.21 1.79.2 2.49.79c.46.38.81.88 1.01 1.44l1.94 5.49zm16.1-.75c-.46.38-1.01.64-1.59.74l-5.75.96 1.94-5.49c.2-.56.55-1.07 1.01-1.45.62-.52 1.39-.8 2.19-.8.1 0 .2 0 .3.01.91.08 1.73.51 2.32 1.21s.87 1.58.79 2.49c-.08.92-.51 1.75-1.21 2.33z"/>
            <path d="m20.58 31.1c-.04-.03-.07-.07-.11-.1h-6.47v7h14v-4.63l-3.92-.65c-1.3-.23-2.51-.79-3.5-1.62z"/>
            <path d="m30 59h4v-25.29l-2 .33-2-.33z"/>
            <path d="m43.53 31c-.04.03-.07.07-.1.1-1 .83-2.2 1.39-3.48 1.62l-3.95.65v4.63h14v-7z"/>
        </g>
        <path d="m23 13h2v2h-2z" display="inline"/>
    </g>
</svg>